Patient4_TMGait_0pt2_01_left_20_EMG.mot
version=1
nRows=30
nColumns=33
inDegrees=no
endheader
time	1LAddLong	2LGlutMax	3LGlutMed	4LIliopsoas	5LSemiMemb	6LBicFemLong	7LRecFem	8LVastMed	9LVastLat	10LGasMed	11LTibAnt	12lTibPost	13LPeroneusLong	14LSol	15LExtDigLong	16LFlexDigLong	17RAddLong	18RGlutMax	19RGlutMed	20RIliopsoas	21RSemiMemb	22RBicFemLong	23RRecFem	24RVastMed	25RVastLat	26RGasMed	27RTibAnt	28RTibPost	29RPeroneusLong	30RSol	31RExtDigLong	32RFlexDigLong
46.802	-0.028992	0.073242	0.016785	0.004883	-0.12268	0.067139	0.005035	0.010681	-0.004578	0.21591	0.011749	0.005646	-0.4982	-0.27405	-0.086212	-0.015106	-0.0177	-0.054321	-0.15701	-0.044403	-0.037994	0.035248	0.081329	-0.019989	-0.021667	-0.005951	0.066986	0.03952	0.040588	0.29511	-0.002441	-0.008545
46.803	-0.015411	0.090942	0.014801	0.001221	-0.20477	-0.014954	0.007782	0.014496	0.002289	0.44205	0.001984	0.00885	0.048523	-0.89584	-0.32501	-0.011597	-0.016327	-0.068817	-0.009308	-0.017395	0.080414	-0.044556	0.060577	0.037231	-0.023651	-0.0383	0.066376	-0.2829	-0.057678	0.11047	-0.006866	-0.013123
46.804	-0.003357	0.094147	-0.00946	0.007782	-0.18249	-0.049744	0.016327	0.006256	-0.003357	0.62256	-0.014191	0.013428	0.4512	-0.74524	-0.1886	-0.007019	-0.000305	0.026093	-0.26733	0.042114	0.046692	-0.070343	-0.039825	0.048065	0.007477	-0.027161	0.063171	0.008087	-0.13473	0.092468	-0.003357	-0.021362
46.805	0.021057	0.068512	-0.043182	0.00473	-0.069733	-0.08316	-0.02533	0.002594	-0.001068	0.60516	0.001526	0.020294	0.75241	-0.41382	0.071564	-0.017853	-0.020294	0.089111	-0.19943	0.020905	0.015411	-0.037231	-0.09903	0.052338	0.046844	-0.037689	0.036316	0.027771	0.12116	0.019073	-0.002594	-0.018463
46.806	0.022125	0.066223	-0.063171	0.014191	0.1294	-0.061951	-0.001526	0.009918	-0.001831	0.25559	-0.007324	0.008392	0.24994	-0.061493	0.054169	-0.019684	-0.02121	0.039368	0.3421	-0.02594	-0.026245	-0.029144	-0.030518	0.010071	0.049286	-0.083008	0.038452	0.014038	0.19012	0.30563	0.00061	-0.011597
46.807	0.02594	0.073547	-0.012207	-0.00412	0.15289	0.042572	-0.011902	0.006409	0.006561	-0.30823	-0.010376	0.005341	-0.32669	-0.089722	0.042419	-0.009308	-0.007782	0.050049	0.50613	-0.058441	-0.030518	-0.020142	0.034943	-0.005493	0.039673	-0.028076	0.058899	0.006714	0.1207	0.56183	-0.000305	-0.011597
46.808	0.008392	0.077057	-0.041962	-0.000458	0.046844	0.1831	-0.024414	0.007324	0.034027	-0.52582	-0.007935	0.000458	0.035248	-0.3067	0.013275	-0.00412	0.011902	-0.005798	0.002747	-0.009308	-0.027161	-0.015259	0.02594	-0.031128	0.0177	0.018158	0.071259	0.068207	0.03479	0.22461	-0.000458	-0.015259
46.809	-0.003204	0.063171	0.007172	-0.001984	-0.02655	0.1944	-0.018005	0.00412	0.066528	-0.24017	0.009003	0.008087	-0.23926	-0.32181	-0.064087	-0.012665	0.012054	0.038452	-0.29953	0.009766	-0.080109	-0.022583	0.008087	-0.0383	0.005798	0.03418	0.056763	0.090942	-0.13596	-0.32562	0.001373	-0.016632
46.81	-0.006104	0.050812	0.019684	0.000305	-0.031433	0.15564	0.015717	0.007324	0.097809	0.27985	0.014954	0.005341	-0.15579	-0.055542	0.017548	-0.002899	0.022583	0.00946	-0.31357	0.025177	-0.007935	-0.009308	0.042419	-0.085754	-0.005188	0.028687	0.032654	0.020294	-0.34241	-0.51422	0.00061	-0.016632
46.811	-0.000458	0.056305	-0.015717	0.010681	0.036469	0.14206	0.018005	0.00885	0.098267	0.73685	0.003967	0.004425	-0.15732	0.06134	0.045013	-0.011139	0.009766	0.03891	-0.10529	-0.009308	0.019073	0.005341	0.057526	-0.056915	0.008392	0.018768	0.006866	-0.27817	-0.39261	-0.066681	0.000305	-0.014648
46.812	0.00061	0.059967	-0.014801	-0.000458	0.080261	0.022583	0.003815	0.00351	0.11978	-0.18845	0.00824	0.010986	-0.08255	0.028839	0.023651	-0.00885	-0.019226	0.016632	-0.040283	0.004578	-0.027161	-0.011292	0.04364	0.005493	0.008087	0.021515	0.018311	-0.18402	-0.35965	0.29892	-0.001221	-0.017853
46.813	-0.01358	0.021973	-0.020294	0.001373	0.049591	0.049133	-0.018768	0.010986	0.1265	-0.24353	0.027008	0.017853	-0.11658	0.069733	0.00946	0.00473	-0.019226	0.033417	-0.078278	0.007019	0.064545	-0.093994	0.10819	-0.016937	-0.005035	0.003815	0.026245	0.031281	-0.19714	-0.01236	-0.001526	-0.010529
46.814	-0.009155	0.002441	-0.05249	-0.006409	0.020142	0.091858	-0.039368	0.011444	0.11246	-0.2211	0.019226	0.02594	-0.099945	0.050659	-0.041046	0.001373	0	-0.011139	-0.10361	-0.009613	0.040283	-0.18845	0.095062	-0.055084	-0.03891	-0.026703	0.006866	0.16953	0.024261	-0.48798	0.000305	-0.019379
46.815	-0.007629	0.005646	-0.003052	-0.00412	0.010834	0.006714	-0.070953	0.005035	0.070953	-0.29465	0.014648	-0.007172	-0.033264	0.14374	-0.022888	0.011749	-0.018463	0.014038	-0.15015	-0.009918	0.027008	-0.25284	0.088654	0.057983	-0.048828	-0.018158	0.009003	0.24002	0.35416	-0.80475	-0.001221	-0.006561
46.816	-0.00061	0.042267	-0.013275	-0.003815	-0.018005	-0.093079	-0.078583	0.005188	-0.10513	0.25955	0.002747	0.024567	-0.000916	0.14862	-0.04715	0.004578	0.009308	0.09613	-0.000458	-0.018158	-0.053711	-0.22293	0.17853	0.006256	-0.062866	-0.003052	0.009918	-0.048523	0.35385	-0.22659	0.004272	-0.003052
46.817	0.013428	0.007172	0.008545	0.006409	0.005341	-0.079346	-0.053558	0	-0.28946	0.27878	0.000305	-0.021515	0.041809	0.16724	-0.089874	-0.019989	0.017395	0.12024	0.24353	-0.02655	-0.15717	-0.009766	0.097504	-0.042877	-0.075073	0.005035	0.008545	-0.079803	0.25497	-0.0177	0.000763	-0.000916
46.818	0.020294	-0.016174	0.035553	0.027161	0.046234	-0.12161	-0.08194	-0.007324	-0.23972	0.19104	0.007935	-0.013123	0.095673	0.18219	-0.022125	0.074615	0.014648	0.086517	0.1738	0.02243	-0.15869	0.080109	-0.065613	-0.024567	0.005341	0.003357	0.018158	0.1059	0.10788	0.50095	-0.001373	0.000458
46.819	0.02594	-0.042725	0.081177	0.019073	0.025177	-0.14832	-0.066986	-0.000916	-0.103	0.033722	0.001373	0.010376	0.0914	0.13718	0.097504	-0.13596	0.010986	0.1059	-0.13931	0.056152	-0.030365	0.19073	-0.072021	0.010681	0.037842	0.012054	0.041046	0.15457	0.019836	0.2861	-0.001984	0.005646
46.82	0.037079	-0.048981	0.034332	0.015106	-0.000763	-0.15396	-0.033417	-0.001068	-0.027161	-0.43701	0.004883	0.001526	-0.12787	0.096741	0.1149	0.082092	0.014496	-0.003357	-0.063782	0.073853	0.063171	0.35309	-0.089722	0.044556	0.055084	0.006866	0.039063	0.061188	0.033722	0.13062	-0.000458	0.001068
46.821	0.0354	-0.081024	0.019531	0.001984	-0.014496	-0.19028	-0.02121	-0.002899	0.073547	-0.22034	0.011597	-0.000153	-0.43137	0.26367	0.09079	0.23544	0.016937	-0.027618	-0.042419	0.027618	0.039368	0.29663	-0.015411	-0.01297	0.059509	-0.015259	0.003967	0.027924	0.042725	0.34668	-0.002747	-0.001984
46.822	0.036316	-0.068054	0.012207	-0.001068	0.004578	-0.14954	-0.024567	-0.006256	0.098419	0.19959	0.035553	0.038757	-0.051117	0.35858	0.177	-0.076752	0.024567	0.00473	-0.21255	0.018311	0.010681	0.18082	0.083771	-0.039825	-0.000305	-0.012665	0.001373	-0.05249	0.033417	0.11124	0.001221	-0.003662
46.823	0.0383	-0.074768	0.007629	0.003967	0.051422	-0.025482	-0.018921	-0.00412	0.042725	0.098724	0.03006	0.089722	0.63278	0.60257	0.2092	-0.14832	0.010681	0.052643	-0.37628	0.000763	0.027313	0.083618	0.080719	-0.026703	0.001831	-0.009613	0.003815	-0.11673	0.014648	-0.088654	-0.000916	-0.004272
46.824	0.026245	-0.043945	0.011292	0.007019	0.058594	0.075378	-0.020294	-0.000916	0.031281	-0.29053	0.002289	-0.001678	0.92422	0.36392	0.15167	-0.090027	-0.013275	0.065002	-0.29755	0.021362	0.062408	0.048828	0.088196	0.041962	0.016327	-0.005341	-0.011902	-0.081329	0.020294	-0.31189	0.001068	-0.011902
46.825	-0.003052	0.003052	0.007782	0.001221	0.058136	0.17319	0.00885	0.005493	0.024414	-0.19592	-0.05249	0.060272	0.27924	0.039063	-0.059509	-0.021515	-0.012665	0.071259	-0.05188	-0.011597	0.11948	0.074005	0.071716	0.069885	-0.007172	-0.002747	-0.001831	0.016937	0.018005	-0.15625	-0.002747	-0.006409
46.826	-0.028381	0.001831	-0.013123	-0.006561	0.016785	0.19409	0.018005	0.018158	0.017548	0.21011	0.034485	0.039978	-0.93475	0.044556	-0.31876	0.11368	-0.007477	0.049286	0.13672	-0.09079	0.16296	0.032959	0.061798	0.15854	0.024567	-0.014801	0.017548	0.05188	-0.058899	-0.023346	0	-0.015411
46.827	-0.035095	-0.11276	-0.06546	0.001221	-0.001984	0.11658	0.014648	0.015106	0.015869	0.25894	0.031586	0.037842	0.10452	-0.005341	-0.31662	0.064697	-0.01709	-0.038147	0.11353	-0.042877	0.11444	-0.006409	0.042572	0.088501	0.013123	-0.009308	0.015564	0.0354	-0.058289	0.012512	0.001526	-0.004425
46.828	-0.020294	-0.10071	-0.09903	0.017395	-0.059814	-0.059814	0.010071	0.014801	0.033264	-0.06897	0.022583	-0.006256	-0.21133	-0.36774	-0.19318	0.018768	-0.030212	-0.006561	-0.084381	0.049591	0.024414	-0.048523	-0.053864	0.088806	0.017853	-0.007782	0.033417	0.011749	-0.11505	-0.14008	0.001831	-0.019836
46.829	0.001831	-0.077362	-0.074768	0.015259	-0.028839	-0.22797	-0.001373	0.009155	0.016174	0.16113	-0.017395	-0.026398	0.033417	-1.2662	-0.11643	0.007172	-0.006409	-0.025787	0.097809	0.034027	-0.018616	-0.063934	0.010071	0.03891	0.062408	-0.001678	0.043335	-0.014038	-0.067139	-0.26276	0.010529	-0.015564
46.83	0.035248	-0.079193	-0.044403	0.023041	0.11505	-0.32608	-0.003967	-0.001068	-0.00824	-0.038452	-0.017242	-0.018158	0.044861	-1.0059	-0.053711	-0.017395	0.028229	0.002594	0.51148	0.027008	0.12146	-0.10132	0.10086	-0.032196	0.02533	-0.017242	0.048523	-0.035248	0.12589	-0.096588	0.001373	-0.017853
46.831	0.056305	-0.11032	-0.06424	0.006714	0.04364	-0.16937	-0.000153	-0.008392	-0.03479	-0.45136	0.034943	-0.017853	-0.24185	-0.75028	-0.098114	-0.02243	0.015411	0.019684	0.093384	-0.0177	-0.017395	-0.040741	0.05661	-0.047455	0.004883	-0.026398	0.042267	-0.03952	0.18768	0.087891	0.002289	-0.015259
